# xmcd
#
# Track frame offsets: 
#        150
#        9608
#        24921
#        38465
#        51288
#        65022
#        74799
#        92353
#        108062
#        122151
#        134161
#        146876
#        160490
#        173526
#        183363
#        198650
#        212721
#        226377
#        240624
#        253702
#        267166
#        280789
#        297089
#        312863
#        328362
#
# Disc length: 4636 seconds
#
# Revision: 0
# Processed by: cddbd v1.5.2PL0 Copyright (c) Steve Scherf et al.
# Submitted via: ExactAudioCopy v0.99pb5
#
DISCID=79121a19
DTITLE=David Bowie  - David Bowie - Deluxe Edtion 2010 - Disc 2
DYEAR=1900
DGENRE=
TTITLE0=Rubber Band (Single Version)
TTITLE1=The London Boys
TTITLE2=The Laughing Gnome
TTITLE3=The Gospel According To Tony Day
TTITLE4=Love You Till Tuesday (Single Version)
TTITLE5=Did You Ever Have A Dream
TTITLE6=When I Live My Dream (Single Version)
TTITLE7=Let Me Sleep Beside You
TTITLE8=Karma Man
TTITLE9=London Bye Ta-Ta (Previously Unreleased)
TTITLE10=In The Heat Of The Morning (Previously Unreleased Mono Vocal 
TTITLE10=Version)
TTITLE11=The Laughing Gnome (Previously Unreleased Stereo Mix)
TTITLE12=The Gospel According To Tony Day (Previously Unreleased Stere
TTITLE12=o Mix)
TTITLE13=Did You Ever Have A Dream (Previously Unreleased Stereo Mix)
TTITLE14=Let Me Sleep Beside You (Previously Unreleased Stereo Mix)
TTITLE15=Karma Man (Previously Unreleased Stereo Mix)
TTITLE16=In The Heat Of The Morning
TTITLE17=When I'm Five
TTITLE18=Ching-A-Ling (Previously Unreleased Stereo Mix)
TTITLE19=Sell Me A Coat (Remix)
TTITLE20=Love You Till Tuesday (Recorded For BBC Radio One's Top Gear)
TTITLE21=When I Live My Dream (Recorded For BBC Radio One's Top Gear)
TTITLE22=Little Bombadier (Recorded For BBC Radio One's Top Gear)
TTITLE23=Silly Boy Blue (Recorded For BBC Radio One's Top Gear)
TTITLE24=In The Heat Of The Morning (Recorded For BBC Radio One's Top 
TTITLE24=Gear)
EXTD=
EXTT0=
EXTT1=
EXTT2=
EXTT3=
EXTT4=
EXTT5=
EXTT6=
EXTT7=
EXTT8=
EXTT9=
EXTT10=
EXTT11=
EXTT12=
EXTT13=
EXTT14=
EXTT15=
EXTT16=
EXTT17=
EXTT18=
EXTT19=
EXTT20=
EXTT21=
EXTT22=
EXTT23=
EXTT24=
PLAYORDER=
